<svg width="58" height="60" viewBox="0 0 58 60" fill="none" xmlns="http://www.w3.org/2000/svg">
<rect width="58" height="60" fill="white"/>
<path d="M55.7344 27.6562H2.26562C1.01432 27.6562 0 28.7055 0 30C0 31.2945 1.01432 32.3438 2.26562 32.3438H55.7344C56.9857 32.3438 58 31.2945 58 30C58 28.7055 56.9857 27.6562 55.7344 27.6562Z" fill="black"/>
<path d="M55.7344 8.90625H2.26562C1.01432 8.90625 0 9.95555 0 11.25C0 12.5445 1.01432 13.5938 2.26562 13.5938H55.7344C56.9857 13.5938 58 12.5445 58 11.25C58 9.95555 56.9857 8.90625 55.7344 8.90625Z" fill="black"/>
<path d="M55.7344 46.4062H2.26562C1.01432 46.4062 0 47.4555 0 48.75C0 50.0445 1.01432 51.0938 2.26562 51.0938H55.7344C56.9857 51.0938 58 50.0445 58 48.75C58 47.4555 56.9857 46.4062 55.7344 46.4062Z" fill="black"/>
</svg>
